<?xml version="1.0" encoding="utf-8"?>
<!-- Generator: Adobe Illustrator 19.0.0, SVG Export Plug-In . SVG Version: 6.00 Build 0)  -->
<svg version="1.1" id="Layer_1" xmlns="http://www.w3.org/2000/svg" xmlns:xlink="http://www.w3.org/1999/xlink" x="0px" y="0px"
	 viewBox="-451 252.3 56.7 56.7" style="enable-background:new -451 252.3 56.7 56.7;" xml:space="preserve">
<style type="text/css">
	.st0{fill:#FFFFFF;}
</style>
<g>
	<path class="st0" d="M-413,279.6c-3.2,0-3.6,3.2-3.6,3.2h6.7C-409.8,282.7-409.8,279.6-413,279.6z"/>
	<path class="st0" d="M-428.3,282.7h-6v5.5h5.3c0.1,0,0.2,0,0.4,0c0.9,0,2.5-0.3,2.5-2.7C-426.1,282.7-428.3,282.7-428.3,282.7z"/>
	<path class="st0" d="M-422.7,257.4c-13.6,0-24.6,11-24.6,24.6s11,24.6,24.6,24.6c13.6,0,24.6-11,24.6-24.6
		C-398,268.4-409.1,257.4-422.7,257.4z M-417.5,272.5h8.5v2.5h-8.5V272.5z M-421.8,285.8c0,6.3-6.5,6.1-6.5,6.1h-6h-0.2h-4.5v-20.5
		h4.5h0.2h6c3.2,0,5.8,1.8,5.8,5.5s-3.1,3.9-3.1,3.9C-421.5,280.7-421.8,285.8-421.8,285.8z M-405.9,285.5h-10.6
		c0,3.8,3.6,3.6,3.6,3.6c3.4,0,3.3-2.2,3.3-2.2h3.6c0,5.9-7,5.5-7,5.5c-8.4,0-7.9-7.9-7.9-7.9s0-7.9,7.9-7.9
		C-404.7,276.6-405.9,285.5-405.9,285.5z"/>
	<path class="st0" d="M-426.8,277.1c0-2.1-1.5-2.1-1.5-2.1h-0.8h-5.2v4.6h5.6C-427.7,279.6-426.8,279.3-426.8,277.1z"/>
</g>
</svg>
