<?xml version="1.0" encoding="utf-8"?>
<!-- Generator: Adobe Illustrator 19.0.0, SVG Export Plug-In . SVG Version: 6.00 Build 0)  -->
<svg version="1.1" id="Layer_1" xmlns="http://www.w3.org/2000/svg" xmlns:xlink="http://www.w3.org/1999/xlink" x="0px" y="0px"
	 viewBox="-451 252.3 56.7 56.7" style="enable-background:new -451 252.3 56.7 56.7;" xml:space="preserve">
<style type="text/css">
	.st0{fill:#FFFFFF;}
</style>
<g>
	<path class="st0" d="M-422.7,257.5c-13.6,0-24.6,11-24.6,24.6c0,13.6,11,24.6,24.6,24.6c13.6,0,24.6-11,24.6-24.6
		C-398,268.5-409.1,257.5-422.7,257.5z M-408.9,294c0,1.1-0.9,2-2,2h-23.4c-1.1,0-2-0.9-2-2v-23.7c0-1.1,0.9-2,2-2h23.4
		c1.1,0,2,0.9,2,2L-408.9,294L-408.9,294z"/>
	<path class="st0" d="M-417.9,278.7c-2.2,0-3.2,1.2-3.7,2.1v0h0c0,0,0,0,0,0V279h-4.2c0.1,1.2,0,12.5,0,12.5h4.2v-7
		c0-0.4,0-0.7,0.1-1c0.3-0.7,1-1.5,2.1-1.5c1.5,0,2.1,1.1,2.1,2.8v6.7h4.1v-7.2C-413.1,280.5-415.2,278.7-417.9,278.7z"/>
	<path class="st0" d="M-430.1,273c-1.4,0-2.3,0.9-2.3,2.2c0,1.2,0.9,2.2,2.3,2.2h0c1.4,0,2.3-1,2.3-2.2
		C-427.8,274-428.7,273-430.1,273z"/>
	<rect x="-432.2" y="279" class="st0" width="4.2" height="12.5"/>
</g>
</svg>
