<?xml version="1.0" encoding="utf-8"?>
<!-- Generator: Adobe Illustrator 19.0.0, SVG Export Plug-In . SVG Version: 6.00 Build 0)  -->
<svg version="1.1" id="Layer_1" xmlns="http://www.w3.org/2000/svg" xmlns:xlink="http://www.w3.org/1999/xlink" x="0px" y="0px"
	 viewBox="-451 252.3 56.7 56.7" style="enable-background:new -451 252.3 56.7 56.7;" xml:space="preserve">
<style type="text/css">
	.st0{fill:#FFFFFF;}
</style>
<g>
	<polygon class="st0" points="-412.5,276.7 -412.5,272.8 -412.5,272.2 -413.1,272.2 -417,272.2 -417,276.7 	"/>
	<path class="st0" d="M-422.8,287.2c2.6,0,4.7-2.1,4.7-4.7c0-1-0.3-2-0.9-2.7c-0.9-1.2-2.2-2-3.8-2c-1.6,0-3,0.8-3.8,2
		c-0.6,0.8-0.9,1.7-0.9,2.7C-427.5,285.1-425.4,287.2-422.8,287.2z"/>
	<path class="st0" d="M-422.7,257.5c-13.6,0-24.6,11-24.6,24.6c0,13.6,11,24.6,24.6,24.6c13.6,0,24.6-11,24.6-24.6
		C-398,268.5-409.1,257.5-422.7,257.5z M-409.4,279.7v11c0,2.9-2.3,5.2-5.2,5.2H-431c-2.9,0-5.2-2.3-5.2-5.2v-11v-5.5
		c0-2.9,2.3-5.2,5.2-5.2h16.4c2.9,0,5.2,2.3,5.2,5.2C-409.4,274.3-409.4,279.7-409.4,279.7z"/>
	<path class="st0" d="M-415.5,282.5c0,4-3.3,7.3-7.3,7.3c-4,0-7.3-3.3-7.3-7.3c0-1,0.2-1.9,0.5-2.7h-4v11c0,1.4,1.1,2.6,2.6,2.6
		h16.4c1.4,0,2.6-1.1,2.6-2.6v-11h-4C-415.6,280.6-415.5,281.5-415.5,282.5z"/>
</g>
</svg>
